<svg width="800" height="800" viewBox="0 0 800 800" fill="none" xmlns="http://www.w3.org/2000/svg">
  <rect width="800" height="800" rx="120" fill="#FFF3F7"/>
  <rect x="270" y="180" width="260" height="380" rx="120" fill="#FFFDFB" stroke="#EACFDA" stroke-width="18"/>
  <rect x="298" y="220" width="204" height="306" rx="96" fill="#FFD5DF"/>
  <rect x="298" y="390" width="204" height="136" rx="82" fill="#FFC0CF"/>
  <circle cx="340" cy="274" r="22" fill="#FFF6FB"/>
  <circle cx="462" cy="294" r="18" fill="#FFF6FB"/>
  <circle cx="404" cy="348" r="16" fill="#FFF6FB"/>
  <circle cx="360" cy="444" r="22" fill="#FFF6FB"/>
  <path d="M404 120V226" stroke="#8D604F" stroke-width="18" stroke-linecap="round"/>
  <path d="M368 186H438" stroke="#8D604F" stroke-width="14" stroke-linecap="round"/>
  <path d="M306 246C324 216 368 212 392 238C366 240 338 242 306 246Z" fill="#F86C8D"/>
  <path d="M430 248C446 220 484 216 502 242C482 242 458 244 430 248Z" fill="#F86C8D"/>
  <path d="M356 196C368 176 394 172 410 188" stroke="#71B88F" stroke-width="18" stroke-linecap="round"/>
  <rect x="226" y="584" width="348" height="52" rx="26" fill="#F86C8D" fill-opacity="0.16"/>
  <text x="400" y="618" text-anchor="middle" font-size="42" fill="#8D604F" font-family="PingFang SC, Microsoft YaHei, sans-serif">草莓气泡饮</text>
</svg>
